<?xml version="1.0" encoding="utf-8"?>
<!-- Generator: Adobe Illustrator 16.0.0, SVG Export Plug-In . SVG Version: 6.00 Build 0)  -->
<!DOCTYPE svg PUBLIC "-//W3C//DTD SVG 1.1//EN" "http://www.w3.org/Graphics/SVG/1.1/DTD/svg11.dtd">
<svg version="1.1" id="Calque_1" xmlns="http://www.w3.org/2000/svg" xmlns:xlink="http://www.w3.org/1999/xlink" x="0px" y="0px"
	 width="400px" height="500px" viewBox="0 0 400 500" enable-background="new 0 0 400 500" xml:space="preserve">
<g>
	<path fill="#FFFFFF" d="M217.92,420.79c-10.831,3.518-22.025,6.388-33.274,8.529c-2.004,0.382-3.32,2.315-2.939,4.32
		c0.338,1.771,1.887,3.005,3.625,3.005c0.23,0,0.462-0.021,0.696-0.065c11.552-2.199,23.049-5.146,34.175-8.759
		c1.939-0.631,3.003-2.717,2.373-4.657C221.946,421.222,219.862,420.16,217.92,420.79z"/>
	<path fill="#FFFFFF" d="M312.02,365.664c-15.423,14.412-32.582,27.09-50.998,37.678c-8.169,4.696-16.641,9.007-25.18,12.813
		c-1.864,0.831-2.701,3.016-1.87,4.88c0.613,1.375,1.962,2.19,3.377,2.19c0.502,0,1.013-0.103,1.502-0.32
		c8.768-3.908,17.466-8.334,25.854-13.155c18.907-10.871,36.523-23.887,52.361-38.685c1.491-1.395,1.57-3.731,0.177-5.225
		C315.85,364.35,313.512,364.27,312.02,365.664z"/>
	<path fill="#FFFFFF" d="M250.601,395.496c-0.885-1.84-3.095-2.616-4.932-1.729c-31.033,14.936-64.479,23.466-99.405,25.352
		c-2.038,0.111-3.601,1.853-3.491,3.891c0.107,1.971,1.737,3.495,3.687,3.495c0.067,0,0.135-0.001,0.202-0.005
		c35.906-1.939,70.295-10.712,102.211-26.073C250.713,399.543,251.487,397.334,250.601,395.496z"/>
	<path fill="#FFFFFF" d="M328.808,330.75c-17.763,20.146-38.373,37.367-61.259,51.185c-1.748,1.056-2.309,3.326-1.253,5.073
		c0.694,1.149,1.915,1.786,3.167,1.786c0.65,0,1.31-0.172,1.906-0.533c23.532-14.206,44.722-31.911,62.982-52.623
		c1.351-1.53,1.204-3.865-0.327-5.215C332.492,329.071,330.156,329.218,328.808,330.75z"/>
	<path fill="#FFFFFF" d="M192.858,401.085c-0.459-1.989-2.444-3.229-4.433-2.768c-18.452,4.267-37.716,6.431-57.259,6.431
		c-3.358,0-6.77-0.067-10.43-0.204c-2.017-0.103-3.754,1.515-3.831,3.554c-0.077,2.039,1.514,3.754,3.554,3.831
		c3.754,0.143,7.256,0.21,10.707,0.21c20.103,0,39.927-2.228,58.924-6.621C192.079,405.058,193.318,403.073,192.858,401.085z"/>
	<path fill="#FFFFFF" d="M338.352,300.754c-1.653-1.194-3.964-0.821-5.158,0.835c-22.907,31.76-51.932,56.992-86.266,74.995
		c-12.374,6.491-25.317,11.938-38.471,16.189c-1.942,0.628-3.008,2.712-2.38,4.652c0.506,1.564,1.956,2.561,3.516,2.561
		c0.377,0,0.76-0.059,1.137-0.181c13.552-4.382,26.886-9.991,39.63-16.678c35.357-18.54,65.244-44.52,88.827-77.216
		C340.382,304.257,340.008,301.947,338.352,300.754z"/>
	<path fill="#FFFFFF" d="M338.239,273.375c-1.756-1.041-4.022-0.462-5.063,1.293c-22.519,37.966-54.715,68.684-93.106,88.835
		c-33.476,17.562-70.116,26.464-108.903,26.464c-9.64,0-19.385-0.573-28.966-1.704c-2.035-0.239-3.863,1.211-4.103,3.237
		c-0.239,2.026,1.21,3.863,3.237,4.103c9.867,1.165,19.904,1.756,29.833,1.756c39.996,0,77.79-9.188,112.337-27.312
		c39.604-20.787,72.811-52.466,96.028-91.607C340.572,276.684,339.994,274.416,338.239,273.375z"/>
	<path fill="#FFFFFF" d="M85.061,133.091c0.265,0,0.535-0.028,0.805-0.089c7.052-1.567,14.266-2.534,21.439-2.872
		c1.872-0.088,3.38-1.562,3.512-3.431c0.65-9.21,2.299-18.351,4.899-27.166c0.577-1.957-0.542-4.012-2.5-4.589
		c-1.955-0.573-4.012,0.541-4.59,2.499c-2.445,8.291-4.094,16.854-4.914,25.498c-6.521,0.469-13.049,1.424-19.452,2.847
		c-1.992,0.442-3.248,2.416-2.805,4.409C81.84,131.919,83.367,133.091,85.061,133.091z"/>
	<path fill="#FFFFFF" d="M236.629,356.952c45.768-24.012,81.418-62.41,103.099-111.042c0.831-1.864-0.007-4.049-1.87-4.88
		c-1.867-0.831-4.05,0.006-4.88,1.87c-20.996,47.1-55.501,84.275-99.782,107.507c-31.343,16.441-65.671,24.778-102.03,24.778
		c-11.447,0-23.036-0.855-34.455-2.549c-2.64-0.383-5.392-0.894-8.181-1.516c-1.988-0.445-3.966,0.809-4.412,2.801
		c-0.445,1.992,0.809,3.966,2.801,4.411c2.97,0.663,5.906,1.208,8.719,1.616c11.767,1.743,23.72,2.627,35.528,2.627
		C168.733,382.577,204.216,373.955,236.629,356.952z"/>
	<path fill="#FFFFFF" d="M121.535,135.452c0.044,0.002,0.086,0.002,0.13,0.002c1.982,0,3.622-1.572,3.691-3.567
		c0.564-16.355,4.533-32.072,11.796-46.714c0.907-1.828,0.16-4.046-1.668-4.952c-1.831-0.907-4.046-0.161-4.953,1.668
		c-7.733,15.593-11.96,32.328-12.561,49.742C117.899,133.67,119.495,135.381,121.535,135.452z"/>
	<path fill="#FFFFFF" d="M75.339,151.183c0.401,0,0.81-0.066,1.211-0.205c11.881-4.121,24.289-6.211,36.879-6.211
		c2.041,0,3.695-1.654,3.695-3.695c0-2.041-1.654-3.694-3.695-3.694c-13.416,0-26.639,2.227-39.301,6.619
		c-1.928,0.668-2.949,2.773-2.28,4.701C72.377,150.225,73.808,151.183,75.339,151.183z"/>
	<path fill="#FFFFFF" d="M131.166,367.796c35.153,0,68.329-8.049,98.605-23.926c52.807-27.723,92.101-77.781,108.553-137.972
		c0.825-2.968,3.29-8.594-0.564-10.267c-2.143-0.926-4.532,0.363-5.056,2.501c-14.918,60.804-53.688,111.539-106.366,139.194
		c-29.205,15.313-61.227,23.079-95.172,23.079c-10.658,0-21.522-0.803-32.287-2.386c-7.118-1.054-14.059-2.842-20.627-5.314
		c-1.909-0.716-4.041,0.245-4.76,2.156c-0.719,1.91,0.246,4.041,2.156,4.761c7.061,2.658,14.512,4.579,22.154,5.711
		C108.924,366.968,120.149,367.796,131.166,367.796z"/>
	<path fill="#FFFFFF" d="M132.704,138.685c0.053,2.007,1.696,3.599,3.692,3.599c0.033,0,0.066,0,0.098-0.001
		c2.04-0.053,3.651-1.749,3.598-3.79c-0.586-22.649,6.682-45.058,20.468-63.095c1.239-1.622,0.929-3.94-0.692-5.18
		c-1.623-1.239-3.941-0.93-5.18,0.692C139.881,90.284,132.074,114.353,132.704,138.685z"/>
	<path fill="#FFFFFF" d="M65.217,167.638c0.854,2.011,3.208,2.785,5.027,1.885c13.62-6.618,28.149-9.975,43.186-9.975
		c4.899,0,9.814,0.359,14.61,1.069c2.019,0.291,3.897-1.098,4.196-3.115c0.299-2.019-1.096-3.897-3.115-4.196
		c-5.152-0.762-10.43-1.148-15.691-1.148c-16.091,0-31.64,3.574-46.218,10.623C65.487,163.396,64.375,165.657,65.217,167.638z"/>
	<path fill="#FFFFFF" d="M131.166,353.016c32.726,0,63.589-7.482,91.732-22.239c63.079-33.105,103.764-98.417,108.834-174.708
		c0.136-2.037-1.405-3.797-3.441-3.933c-2.046-0.139-3.797,1.406-3.933,3.442c-4.898,73.704-44.111,136.751-104.894,168.652
		c-27.073,14.196-56.781,21.395-88.299,21.395c-9.967,0-20.104-0.748-30.128-2.223c-10.671-1.583-20.732-5.062-29.902-10.337
		c-1.767-1.019-4.028-0.409-5.045,1.359c-1.017,1.77-0.409,4.028,1.36,5.046c9.977,5.74,20.912,9.522,32.508,11.242
		C110.342,352.241,120.841,353.016,131.166,353.016z"/>
	<path fill="#FFFFFF" d="M64.744,189.082c0.701,0,1.41-0.2,2.038-0.616c17.427-11.545,38.282-16.248,59.094-13.23
		c1.756,0.262,3.526,0.395,5.261,0.395c3.719,0,6.95-0.662,9.343-1.915c7.511-3.939,14.867-17.434,14.394-35.604
		c-0.672-26.311,10.642-51.037,31.039-67.838c1.576-1.297,1.801-3.627,0.503-5.201c-1.297-1.576-3.627-1.801-5.202-0.503
		c-22.166,18.258-34.459,45.132-33.729,73.734c0.414,15.919-5.855,26.465-10.437,28.867c-0.763,0.399-2.548,1.071-5.912,1.071
		c-1.372,0-2.774-0.105-4.185-0.316c-22.675-3.288-45.315,1.836-64.251,14.382c-1.701,1.126-2.167,3.419-1.039,5.121
		C62.372,188.5,63.547,189.082,64.744,189.082z"/>
	<path fill="#FFFFFF" d="M131.166,338.234c30.317,0,58.867-6.91,84.859-20.54c64.604-33.899,103.455-104.333,101.392-183.806
		c-0.058-2.397-0.235-4.846-0.544-7.481c-0.148-1.785-1.695-3.375-3.681-3.375c-2.042,0-3.696,1.662-3.696,3.702
		c0,0.146,0.009,0.29,0.025,0.434c0.289,2.445,0.455,4.702,0.508,6.905c1.989,76.644-35.347,144.497-97.438,177.078
		c-24.92,13.066-52.316,19.692-81.426,19.692c-9.305,0-18.71-0.696-27.96-2.074c-13.447-1.979-25.89-7.711-35.982-16.576
		c-1.531-1.346-3.868-1.193-5.215,0.338c-1.347,1.532-1.196,3.868,0.338,5.215c11.166,9.809,24.922,16.148,39.778,18.335
		C111.727,337.51,121.498,338.234,131.166,338.234z"/>
	<path fill="#FFFFFF" d="M63.647,208.606c0.892,0,1.785-0.32,2.495-0.97c13.053-11.947,29.847-18.526,47.287-18.526
		c3.45,0,6.912,0.255,10.295,0.759c2.438,0.359,4.932,0.542,7.412,0.542c6.212,0,11.67-1.218,16.214-3.615
		c13.915-7.289,22.872-27.011,22.288-49.069c-0.749-29.457,17.197-56.477,44.658-67.236c1.9-0.744,2.837-2.889,2.092-4.789
		c-0.744-1.9-2.889-2.833-4.789-2.093c-30.346,11.89-50.178,41.751-49.349,74.309c0.511,19.309-6.856,36.32-18.339,42.336
		c-3.479,1.837-7.778,2.767-12.776,2.767c-2.121,0-4.252-0.156-6.329-0.462c-3.737-0.557-7.566-0.839-11.378-0.839
		c-19.292,0-37.858,7.269-52.277,20.466c-1.505,1.378-1.608,3.715-0.23,5.221C61.65,208.202,62.647,208.606,63.647,208.606z"/>
	<path fill="#FFFFFF" d="M104.287,321.462c8.959,1.322,18.002,1.991,26.879,1.991c27.899,0,54.143-6.343,78-18.854
		c59.569-31.257,95.384-96.524,93.471-170.333c-0.441-17.137-7.526-32.931-19.854-44.376l-0.51-0.497l-0.103-0.05
		c-5.463-4.972-11.646-8.876-18.432-11.622c-0.904-0.365-1.821-0.705-2.746-1.029l-0.62-0.301h-0.271
		c-6.468-2.192-13.286-3.311-20.282-3.311c-0.502,0-1.004,0-1.62,0.016c-34.623,0.91-62.063,29.816-61.167,64.436
		c0.658,25.196-9.647,47.104-26.256,55.814c-4.408,2.314-9.448,3.742-14.981,4.247c-2.032,0.185-3.53,1.982-3.346,4.015
		c0.186,2.032,1.977,3.524,4.016,3.345c6.504-0.592,12.475-2.296,17.746-5.063c19.083-10.008,30.939-34.561,30.208-62.55
		c-0.789-30.547,23.425-56.054,53.971-56.857c0.541-0.014,0.968-0.011,1.43-0.013c6.329,0,12.485,1.027,18.302,3.049
		c6.959,3.396,13.578,7.372,19.676,11.824c10.867,10.164,17.063,24.045,17.451,39.113c1.84,70.972-32.461,133.659-89.516,163.596
		c-22.788,11.95-47.875,18.011-74.567,18.011c-8.517,0-17.198-0.645-25.8-1.912c-14.647-2.162-27.576-9.895-36.394-21.756
		c-0.78-1.061-1.525-2.144-2.214-3.219c-1.102-1.718-3.388-2.22-5.105-1.117c-1.719,1.103-2.22,3.389-1.118,5.104
		c0.775,1.21,1.611,2.426,2.496,3.625C73.036,310.251,87.687,319.014,104.287,321.462z"/>
	<path fill="#FFFFFF" d="M61.648,230.692c0.619,0.397,1.312,0.588,1.996,0.588c1.215,0,2.406-0.599,3.111-1.696
		c10.192-15.848,28.076-25.692,46.674-25.692c2.751,0,5.487,0.199,8.13,0.594c2.016,0.295,3.898-1.091,4.2-3.108
		c0.301-2.019-1.09-3.899-3.109-4.2c-3.003-0.448-6.106-0.676-9.221-0.676c-21.405,0-41.178,10.873-52.89,29.085
		C59.435,227.302,59.931,229.588,61.648,230.692z"/>
	<path fill="#FFFFFF" d="M157.652,206.434c-7.781,4.083-16.701,6.153-26.514,6.153c-3.517,0-7.104-0.266-10.659-0.79
		c-2.328-0.345-4.699-0.519-7.046-0.519c-23.633,0-44.052,17.64-47.496,41.033c-1.872,12.693,1.311,25.356,8.962,35.656
		c7.652,10.301,18.855,17.003,31.545,18.873c8.196,1.211,16.513,1.826,24.72,1.826c25.497,0,49.428-5.772,71.129-17.154
		c54.547-28.621,87.333-88.728,85.565-156.862c-0.684-26.237-21.785-46.789-48.04-46.789c-0.387,0-0.777,0.004-1.23,0.017
		c-26.475,0.688-47.458,22.789-46.775,49.27C192.614,167.93,179.205,195.127,157.652,206.434z M199.199,136.957
		c-0.577-22.406,17.178-41.108,39.573-41.691c0.383-0.009,0.715-0.013,1.046-0.013c22.217,0,40.074,17.39,40.652,39.59
		c1.695,65.297-29.577,122.822-81.611,150.125c-20.631,10.821-43.407,16.309-67.696,16.309c-7.847,0-15.801-0.587-23.642-1.745
		c-10.737-1.583-20.216-7.256-26.691-15.969c-6.474-8.717-9.167-19.433-7.583-30.174c2.915-19.793,20.19-34.72,40.185-34.72
		c1.987,0,3.993,0.148,5.966,0.439c3.913,0.578,7.862,0.87,11.739,0.87c11.021,0,21.096-2.355,29.947-6.999
		C185.114,200.373,200.075,170.532,199.199,136.957z"/>
	<path fill="#FFFFFF" d="M118.317,226.419c-1.617-0.239-3.261-0.36-4.885-0.36c-16.357,0-30.49,12.213-32.873,28.409
		c-1.296,8.787,0.907,17.556,6.204,24.685c5.298,7.133,13.055,11.771,21.839,13.066c7.486,1.105,15.077,1.666,22.561,1.666
		c23.082,0,44.703-5.201,64.261-15.461c10.504-5.514,20.287-12.429,29.075-20.556c1.498-1.386,1.59-3.724,0.204-5.222
		c-1.386-1.498-3.724-1.59-5.222-0.205c-8.312,7.688-17.562,14.227-27.491,19.438c-18.49,9.698-38.954,14.616-60.828,14.616
		c-7.124,0-14.351-0.534-21.483-1.587c-6.833-1.008-12.865-4.616-16.985-10.162c-4.12-5.547-5.834-12.365-4.826-19.201
		c1.855-12.597,12.844-22.095,25.563-22.095c1.264,0,2.543,0.095,3.806,0.281c4.629,0.682,9.306,1.028,13.9,1.028
		c13.438,0,25.825-2.925,36.815-8.692c28.976-15.202,47.042-50.332,46.021-89.495c-0.367-14.259,10.932-26.159,25.182-26.53
		c0.234-0.005,0.448-0.008,0.662-0.008c14.142,0,25.507,11.066,25.875,25.193c1.036,39.903-11.266,77.215-34.639,105.063
		c-1.312,1.563-1.108,3.895,0.455,5.206c1.565,1.313,3.895,1.107,5.207-0.454c24.534-29.23,37.448-68.298,36.365-110.007
		c-0.472-18.164-15.083-32.392-33.263-32.392c-0.271,0-0.545,0.003-0.848,0.011c-18.329,0.477-32.856,15.777-32.383,34.109
		c0.946,36.37-15.566,68.855-42.068,82.759c-9.92,5.207-21.152,7.846-33.382,7.846C126.904,227.368,122.59,227.048,118.317,226.419z
		"/>
	<path fill="#FFFFFF" d="M171.388,232.611c-20.369,10.691-41.279,10.485-55.232,8.431c-4.887-0.724-9.759,0.501-13.72,3.446
		c-3.959,2.942-6.536,7.253-7.255,12.136c-0.72,4.882,0.505,9.753,3.448,13.714c2.943,3.962,7.253,6.54,12.134,7.26
		c6.775,1,13.639,1.508,20.401,1.508c20.665,0,39.975-4.633,57.393-13.771c44.497-23.347,71.223-73.127,69.748-129.916
		c-0.265-10.169-8.77-18.263-18.95-17.989c-10.183,0.265-18.254,8.766-17.99,18.95C222.455,178.337,202.839,216.111,171.388,232.611
		z M228.752,136.188c-0.157-6.111,4.685-11.212,10.79-11.371c6.144-0.145,11.217,4.693,11.376,10.794
		c1.401,53.951-23.811,101.15-65.793,123.179c-16.349,8.576-34.503,12.924-53.96,12.924c-6.402,0-12.903-0.479-19.323-1.428
		c-2.929-0.433-5.514-1.979-7.279-4.354c-1.765-2.377-2.501-5.3-2.069-8.229c0.431-2.931,1.977-5.517,4.352-7.283
		c1.93-1.434,4.22-2.188,6.584-2.188c0.546,0,1.097,0.04,1.647,0.121c15.041,2.214,37.614,2.417,59.745-9.196
		C208.747,221.356,229.916,180.939,228.752,136.188z"/>
	<path fill="#FFFFFF" d="M235.574,175.018c0.275,0.063,0.55,0.093,0.82,0.093c1.688,0,3.212-1.164,3.6-2.879
		c2.668-11.771,3.857-24.027,3.534-36.429c-0.052-2.04-1.732-3.619-3.79-3.598c-2.04,0.053-3.651,1.749-3.598,3.789
		c0.306,11.789-0.822,23.432-3.354,34.604C232.336,172.588,233.584,174.567,235.574,175.018z"/>
	<path fill="#FFFFFF" d="M113.998,255.664c-2.022-0.305-3.897,1.098-4.195,3.115c-0.298,2.021,1.098,3.897,3.116,4.195
		c5.333,0.785,11.499,1.348,18.233,1.348c15.001,0,32.825-2.785,50.537-12.077c23.087-12.114,41.582-33.36,52.075-59.827
		c0.753-1.896-0.175-4.044-2.072-4.796c-1.897-0.754-4.044,0.175-4.797,2.072c-9.843,24.823-27.117,44.713-48.64,56.005
		C154.352,258.242,130.119,258.038,113.998,255.664z"/>
</g>
</svg>
